<svg width="18" height="18" viewBox="0 0 22 18" fill="none" xmlns="http://www.w3.org/2000/svg">
<path d="M9.36531 12.2476C7.92708 12.2162 6.49706 12.4722 5.1591 13.0008C3.82113 13.5293 2.60217 14.3196 1.57368 15.3255C1.18699 15.7286 0.994083 15.931 1.00014 16.2018C1.01469 16.3249 1.05667 16.4433 1.12299 16.5481C1.18931 16.6529 1.27828 16.7415 1.38336 16.8073C1.82946 16.9806 2.31212 17.0383 2.7865 16.9751H15.9441C16.4185 17.0383 16.9012 16.9806 17.3473 16.8073C17.4523 16.7415 17.5413 16.6529 17.6076 16.5481C17.6739 16.4433 17.7159 16.3249 17.7305 16.2018C17.7365 15.9293 17.5436 15.7277 17.1569 15.3255C16.1285 14.3196 14.9095 13.5293 13.5715 13.0008C12.2336 12.4722 10.8035 12.2162 9.36531 12.2476Z" stroke="#3953FB" stroke-width="2" stroke-linecap="round" stroke-linejoin="round"/>
<path d="M9.67492 7.97069C10.3642 7.97069 11.038 7.7663 11.6112 7.38336C12.1843 7.00043 12.6311 6.45614 12.8949 5.81933C13.1587 5.18252 13.2278 4.48177 13.0934 3.80571C12.9589 3.12964 12.6271 2.50861 12.1397 2.02114C11.6524 1.53367 11.0314 1.20166 10.3554 1.06708C9.67937 0.932497 8.97861 1.00139 8.34174 1.26506C7.70486 1.52872 7.16046 1.97531 6.77738 2.54836C6.3943 3.12141 6.18975 3.79518 6.18958 4.48448C6.18946 4.94226 6.27953 5.39557 6.45463 5.81853C6.62974 6.24149 6.88645 6.62582 7.2101 6.94955C7.53376 7.27329 7.91802 7.53009 8.34094 7.7053C8.76385 7.88051 9.21715 7.97069 9.67492 7.97069Z" stroke="#3953FB" stroke-width="2" stroke-linecap="round" stroke-linejoin="round"/>
<path d="M18.3012 7.05461V1.86423M15.7061 4.45942H20.8964" stroke="#3953FB" stroke-width="2" stroke-linecap="round" stroke-linejoin="round"/>
</svg>
