<svg width="14" height="14" viewBox="0 0 22 22" fill="none" xmlns="http://www.w3.org/2000/svg">
<path d="M12.744 1.7482L20.272 6.64142C20.538 6.81432 20.671 6.90077 20.7674 7.01609C20.8527 7.11817 20.9167 7.23624 20.9558 7.36339C21 7.50703 21 7.66566 21 7.98293V15.3146C21 16.9948 21 17.8349 20.673 18.4766C20.3854 19.0411 19.9265 19.5 19.362 19.7876C18.7202 20.1146 17.8802 20.1146 16.2 20.1146H5.8C4.11984 20.1146 3.27976 20.1146 2.63803 19.7876C2.07354 19.5 1.6146 19.0411 1.32698 18.4766C1 17.8349 1 16.9948 1 15.3146V7.98293C1 7.66566 1 7.50703 1.04417 7.36339C1.08327 7.23624 1.14735 7.11817 1.23265 7.01609C1.32901 6.90077 1.46201 6.81432 1.72802 6.64142L9.25604 1.7482M12.744 1.7482C12.1127 1.3379 11.7971 1.13274 11.457 1.05292C11.1564 0.982361 10.8436 0.982361 10.543 1.05292C10.2029 1.13274 9.88728 1.3379 9.25604 1.7482M12.744 1.7482L19.9681 6.44387C20.312 6.66742 20.484 6.7792 20.5435 6.92095C20.5956 7.04482 20.5956 7.18443 20.5435 7.30831C20.484 7.45006 20.312 7.56183 19.9681 7.78538L12.744 12.4811C12.1127 12.8914 11.7971 13.0965 11.457 13.1763C11.1564 13.2469 10.8436 13.2469 10.543 13.1763C10.2029 13.0965 9.88728 12.8914 9.25604 12.4811L2.03193 7.78538C1.68801 7.56183 1.51604 7.45006 1.45649 7.30831C1.40444 7.18443 1.40444 7.04482 1.45649 6.92095C1.51604 6.7792 1.68801 6.66742 2.03193 6.44387L9.25604 1.7482" stroke="white" stroke-width="2" stroke-linecap="round" stroke-linejoin="round"/>
</svg>
