<svg width="18" height="18" viewBox="0 0 26 22" fill="none" xmlns="http://www.w3.org/2000/svg">
<path d="M1 8L9.16492 13.7154C9.82609 14.1783 10.1567 14.4097 10.5163 14.4993C10.8339 14.5785 11.1661 14.5785 11.4837 14.4993C11.8433 14.4097 12.1739 14.1783 12.8351 13.7154L21 8M5.8 21H16.2C17.8802 21 18.7202 21 19.362 20.673C19.9265 20.3854 20.3854 19.9265 20.673 19.362C21 18.7202 21 17.8802 21 16.2V9.8C21 8.11984 21 7.27976 20.673 6.63803C20.3854 6.07354 19.9265 5.6146 19.362 5.32698C18.7202 5 17.8802 5 16.2 5H5.8C4.11984 5 3.27976 5 2.63803 5.32698C2.07354 5.6146 1.6146 6.07354 1.32698 6.63803C1 7.27976 1 8.11984 1 9.8V16.2C1 17.8802 1 18.7202 1.32698 19.362C1.6146 19.9265 2.07354 20.3854 2.63803 20.673C3.27976 21 4.11984 21 5.8 21Z" stroke="white" stroke-width="2" stroke-linecap="round" stroke-linejoin="round"/>
<circle cx="20" cy="6" r="4.5" fill="white" stroke="#FF9F09" stroke-width="3"/>
</svg>
