<svg width="20" height="20" viewBox="0 0 25 20" fill="none" xmlns="http://www.w3.org/2000/svg">
<path d="M1 4.375L10.1855 10.8049C10.9294 11.3255 11.3013 11.5859 11.7058 11.6867C12.0631 11.7758 12.4369 11.7758 12.7942 11.6867C13.1987 11.5859 13.5706 11.3255 14.3145 10.8049L23.5 4.375M6.4 19H18.1C19.9902 19 20.9353 19 21.6572 18.6321C22.2923 18.3086 22.8086 17.7923 23.1321 17.1572C23.5 16.4353 23.5 15.4902 23.5 13.6V6.4C23.5 4.50982 23.5 3.56473 23.1321 2.84278C22.8086 2.20774 22.2923 1.69143 21.6572 1.36785C20.9353 1 19.9902 1 18.1 1H6.4C4.50982 1 3.56473 1 2.84278 1.36785C2.20774 1.69143 1.69143 2.20774 1.36785 2.84278C1 3.56473 1 4.50982 1 6.4V13.6C1 15.4902 1 16.4353 1.36785 17.1572C1.69143 17.7923 2.20774 18.3086 2.84278 18.6321C3.56473 19 4.50982 19 6.4 19Z" stroke="#3953FB" stroke-width="2" stroke-linecap="round" stroke-linejoin="round"/>
</svg>
