<svg width="20" height="17" viewBox="0 0 20 17" fill="none" xmlns="http://www.w3.org/2000/svg">
<path d="M1 3.7L5.67446 6.8163C5.94414 6.99609 6.07898 7.08598 6.22486 7.14967C6.35434 7.20619 6.49003 7.24727 6.62912 7.27207C6.78582 7.3 6.94788 7.3 7.27199 7.3H12.728C13.0521 7.3 13.2142 7.3 13.3709 7.27207C13.51 7.24727 13.6457 7.20619 13.7751 7.14967C13.921 7.08598 14.0559 6.99609 14.3255 6.8163L19 3.7M5.32 15.4H14.68C16.1921 15.4 16.9482 15.4 17.5258 15.1057C18.0338 14.8469 18.4469 14.4338 18.7057 13.9258C19 13.3482 19 12.5921 19 11.08V5.32C19 3.80786 19 3.05179 18.7057 2.47423C18.4469 1.96619 18.0338 1.55314 17.5258 1.29428C16.9482 1 16.1921 1 14.68 1H5.32C3.80786 1 3.05179 1 2.47423 1.29428C1.96619 1.55314 1.55314 1.96619 1.29428 2.47423C1 3.05179 1 3.80786 1 5.32V11.08C1 12.5921 1 13.3482 1.29428 13.9258C1.55314 14.4338 1.96619 14.8469 2.47423 15.1057C3.05179 15.4 3.80786 15.4 5.32 15.4Z" stroke="#3953FB" stroke-width="2" stroke-linecap="round" stroke-linejoin="round"/>
</svg>
