<svg width="14" height="14" viewBox="0 0 21 18" fill="none" xmlns="http://www.w3.org/2000/svg">
<path d="M17.413 5.92391L19.875 3.46195M19.875 3.46195L17.413 1M19.875 3.46195L14.951 3.46195" stroke="#3953FB" stroke-width="2" stroke-linecap="round" stroke-linejoin="round"/>
<path d="M8.93583 12.4915C7.57144 12.4618 6.21484 12.7047 4.94556 13.2061C3.67629 13.7075 2.51991 14.4572 1.54422 15.4114C1.17739 15.7939 0.994387 15.9859 1.00013 16.2427C1.01394 16.3596 1.05376 16.4718 1.11668 16.5713C1.17959 16.6707 1.264 16.7547 1.36368 16.8172C1.78688 16.9816 2.24475 17.0363 2.69478 16.9764H15.1769C15.6269 17.0363 16.0848 16.9815 16.508 16.8172C16.6077 16.7547 16.6921 16.6707 16.755 16.5713C16.8179 16.4718 16.8577 16.3596 16.8715 16.2427C16.8773 15.9842 16.6943 15.793 16.3274 15.4114C15.3517 14.4572 14.1954 13.7075 12.9261 13.2061C11.6568 12.7047 10.3002 12.4618 8.93583 12.4915Z" stroke="#3953FB" stroke-width="2" stroke-linecap="round" stroke-linejoin="round"/>
<path d="M9.2295 8.43425C9.88341 8.43425 10.5226 8.24036 11.0664 7.87708C11.6101 7.5138 12.0339 6.99746 12.2841 6.39334C12.5344 5.78922 12.5999 5.12446 12.4724 4.4831C12.3449 3.84174 12.0301 3.2526 11.5678 2.79016C11.1054 2.32772 10.5164 2.01275 9.87505 1.88507C9.23372 1.7574 8.56894 1.82276 7.96476 2.07289C7.36058 2.32302 6.84414 2.74668 6.48072 3.29031C6.11731 3.83394 5.92326 4.47312 5.9231 5.12703C5.92299 5.5613 6.00843 5.99134 6.17455 6.39259C6.34066 6.79383 6.58419 7.15842 6.89123 7.46554C7.19827 7.77265 7.5628 8.01628 7.964 8.18249C8.36521 8.3487 8.79523 8.43425 9.2295 8.43425Z" stroke="#3953FB" stroke-width="2" stroke-linecap="round" stroke-linejoin="round"/>
</svg>
