<svg width="18" height="15" viewBox="0 0 18 15" fill="none" xmlns="http://www.w3.org/2000/svg">
<path d="M4.12195 4.88464H8.02439M4.12195 7.6039H10.3659M15.0488 6.24427V4.72926C15.0488 3.4239 15.0488 2.77121 14.7936 2.27263C14.5691 1.83407 14.2109 1.4775 13.7703 1.25404C13.2695 1 12.6138 1 11.3024 1H4.74634C3.435 1 2.77933 1 2.27846 1.25404C1.83789 1.4775 1.47969 1.83407 1.2552 2.27263C1 2.77121 1 3.4239 1 4.72926V8.38082C1 9.10335 1 9.46461 1.07978 9.761C1.29629 10.5653 1.92743 11.1936 2.73545 11.4091C3.0332 11.4885 3.39612 11.4885 4.12195 11.4885V13.3031C4.12195 13.717 4.12195 13.924 4.2072 14.0304C4.28134 14.1228 4.39377 14.1766 4.51262 14.1765C4.64927 14.1763 4.81165 14.047 5.1364 13.7884L6.99822 12.3057C7.37855 12.0029 7.56872 11.8514 7.78048 11.7437C7.96835 11.6482 8.16833 11.5783 8.375 11.5361C8.60794 11.4885 8.85147 11.4885 9.33854 11.4885H10.3205M11.9268 9.54622L13.4878 11.1001L15.2439 9.35198L17 7.6039" stroke="#3953FB" stroke-width="1.5" stroke-linecap="round" stroke-linejoin="round"/>
</svg>
