<svg width="14" height="14" viewBox="0 0 22 22" fill="none" xmlns="http://www.w3.org/2000/svg">
<g clip-path="url(#clip0_372_69)">
<path d="M4.95622 7.14525H0.370483V21.7686H4.95622V7.14525Z" fill="#3953FB"/>
<path d="M17.2764 6.83427C17.1075 6.81362 16.9277 6.80269 16.748 6.79175C15.8833 6.74433 15.02 6.90747 14.2323 7.26717C13.4445 7.62687 12.7559 8.17238 12.2254 8.85685C12.1538 8.94859 12.0869 9.04386 12.025 9.14232V7.18777H7.63965V21.8111H12.2254V14.9428C12.1149 13.937 12.2603 12.9195 12.6481 11.9849C12.8505 11.6257 13.1479 11.3293 13.5077 11.128C13.8675 10.9268 14.2758 10.8286 14.6877 10.8442C15.0262 10.8218 15.3657 10.8705 15.6842 10.9873C16.0027 11.104 16.2933 11.2862 16.5372 11.5221C16.781 11.7579 16.9728 12.0422 17.1001 12.3567C17.2274 12.6711 17.2875 13.0088 17.2764 13.3478V21.8743H21.8621V12.3335C21.8621 9.06822 20.204 7.14525 17.2764 6.83427Z" fill="#3953FB"/>
<path d="M2.66277 5.32553C3.18941 5.32553 3.70423 5.16936 4.14212 4.87677C4.58001 4.58419 4.9213 4.16832 5.12284 3.68176C5.32438 3.19521 5.37711 2.65981 5.27437 2.14329C5.17162 1.62676 4.91802 1.1523 4.54562 0.779907C4.17323 0.407513 3.69877 0.153909 3.18224 0.0511655C2.66572 -0.0515779 2.13033 0.00115371 1.64377 0.202692C1.15721 0.40423 0.741345 0.745524 0.448757 1.18341C0.156168 1.6213 0 2.13612 0 2.66277C0 3.36898 0.28054 4.04626 0.779906 4.54563C1.27927 5.04499 1.95656 5.32553 2.66277 5.32553Z" fill="#3953FB"/>
</g>
<defs>
<clipPath id="clip0_372_69">
<rect width="21.8621" height="21.8743" fill="white"/>
</clipPath>
</defs>
</svg>
